<svg xmlns="http://www.w3.org/2000/svg" width="412.356" height="608.782" viewBox="0 0 412.356 608.782">
  <path id="Vector" d="M371.344.009c.553-.139,5.957,1.281,7,1.534a12.7,12.7,0,0,0,1.739,3.781c1.477.892,2.128-.37,4.654,1.068a22.99,22.99,0,0,1,6.625-3.268c2.257,2.342,4.7,5.486,8.669,4.468,2.026-1.848,2.628-1.973,3.7.967,1.411,3.867-1.427,7.584-3.119,10.9.822,3.582-1.2,3.442-1.776,6.573-.154,1.659,2.273,5.243,1.986,6.711-.494,2.529-2.887,5.96-1.448,8.688,1.89,1.36,5.019-1.1,7.187-1.483a20.4,20.4,0,0,1,2.946-.275c.883-.745,1.785-1.768,2.844-1.926-.155.921-2.369,4.634-3.039,6.074-1.905.854-3.3-1.9-5.4,1.039-.183,1.677,3.057,3.585,2.063,5.9-1.835-.9-1.2-1.05-4.1-2.149-.751,1.845-1.952,3.987-2.9,5.769,1.572,1.108,3.672,2.349,4.16,4.274-.955,2.052-2.181.23-3.3,1.021-.43.3-.328,1.273-1.643,1.941-2.2-.6-4.293-4.15-5.488-6.055a8.948,8.948,0,0,0-3.25.314c-.364.74.754.776.7,2.492l-1.09.54c-.633,1.708.806,3.643-1.3,5.034-.47-.125-.766-.214-1.233-.378l-.429-.153a47.164,47.164,0,0,0-5.121,3.337c-1.09,1.915.321,4.4-1.507,6.187l-.6-.08c-1.069-1.575-.6-3.354-1.705-5.248l-.59-.144c-.457.425-.371.222-.553.768-1.332,3.984-2.765,1.521-2.282,5.965-.47.891-.124.647-.884.984a3.788,3.788,0,0,0-1.556-.83l-.494.253-.1.709c.623,1.043,1.3,1.1,2.557,1.7-.254.318-2.678,3.365-2.734,3.6,1.449.515,1.68-.387,3.286.64,1.208,2.49-.719,5.09-2.783,6.136-.793.4-.416,4.912-.59,6.176-.769.868-.923.646-2.328.978-1.739,3.694,1.575,2.126-3.709,5.243-.41.76-.911,1.9-1.294,2.7a24.7,24.7,0,0,1-9.04.112c-8.447,4.837-10.751,15.307-12.02,24.141,5.1,5.085-.163,7.052.871,9.154.957.373,1.031.61,1.788.366.013-1.07-.142-.714.346-1.542,1.121.016,2.347,1.046,3.344,1.708a18.637,18.637,0,0,1-.923-3.3l.386-.4c3.163.282,1.89.138,4.691-.628.575,1.631-1.347,4.566-.229,6.7,2.134,1.573,4.553-.407,5.741,2.617a3.73,3.73,0,0,1-2.653,3.872,3.463,3.463,0,0,0-1.952-.086,4.154,4.154,0,0,1,.5,1.73c-.97.77-3.453,3.022-4.6,3.87l-1.034-.348c-1.76,1.453-3.286,3.491-5.89,1.9-3.373-2.061-1.31-2.916-1.588-4.3-1.5.244-1.905,1.39-3.527,1.8-1.029-.743-.26-.918-1.14-2.54l-.692-.121a4.2,4.2,0,0,0-2.254,1.1l.086.621c1.173,1.235,1.983,1.619,1.612,3.3-.871,1.014-2.085,1.313-3.373,1.82-.093,3.8.6,5.075,1.192,8.758.97-1.162,1.523-2.149,3-2.3,1.223,1.306.167,2.794,1.612,3.72l.843-.3a5.978,5.978,0,0,0,1.247-3.07c1.857,3.462,2.168,4.406,2,8.162a11.686,11.686,0,0,0-3.484.486l-.123.4c2.041,2.587,3.52-.343,6.948-.084l.269.681A31.752,31.752,0,0,1,343,173.847c-3.444,1.3-7.712,2.014-10.979,3.416a5.3,5.3,0,0,1-2.786.738c-1.427,3.143-3.175,8.49-4.392,11.889l1.436,3.224c-1.631,1.654-3,3.065-4.506,4.823.7,2.073,2,5.036,1.556,7.27-.333,1.029-3.52,1.139-3.953,1.8-4.623,7.082-9.71,13.878-11.671,22.274-1.034,4.438-1.248,7.8-3.62,11.7,1.786,3.823,1.473,5.377-.237,9.128-1.857,4.077-2.842,8.945-4.229,13.295-2.032,6.386-4.092,12.85-5.831,19.315-.969,3.671-1.238,9.106-2.276,12.664-.924,3.172-2.672,6.919-3.774,10.158-2.718,8-5.464,15.977-8.3,23.933-1.013,2.857-1.1,6.745-1.977,9.818-3.147,11.087-6.3,22.151-9.142,33.324,1.754,5.307-.018,4.886-3.514,8.256a47.266,47.266,0,0,1-.6,5.377c-.609,4.1-2.245,1.18-4.012,2.545.309,1.8,2.529,1.778,3.669,2.838.519.482.96,4.744,1.019,5.346-.3,1.007-1.587,2.156-1.735,3.126-1.118,7.394-2.811,18.593,2.4,24.782,1.334,1.587,3.811.806,5.516.661l.207.574c-.642,1.016-1.986,1.034-3.314,2.18l.111.877c.7.7,1.149.677,2.218.745,1.245.08.661,2.493,2.3,3.7a3.172,3.172,0,0,0,2.348-.142l.349-.1.167.232c-.324,2.847-2.857,6.819-4.318,9.459.077,1.155.447,4.182-.534,4.831q-.829-.829-1.637-1.683l-.537.09c-1.68,3.437,2.52,5.225,1.183,7.607-1.921.229-2.462.056-3.617,1.631l.4.451a11.511,11.511,0,0,1,2.184.457c-.374,2.143-4.466,7.542-4.107,9.367.7.525,1.019.627,1.272,1.436-.448,1.325-1.554,1.915-2.517,3.243.837,1.43,2.8.677,4.466,3.348-.1,3.055-4.979,2.063-6.458,3.743.343,1.229.933.312,1.841,1.758a4.617,4.617,0,0,0-1.115,1.986c1.121.6,1.081-.034,2.888-.018,2.171,4.2.179,3.205-.7,4.774,1.38,1.925,4.1,3.938,2.595,6.131-.871.04-1.131-.4-2.042-1.016-.729.383-1.838,2.328-2.39,3.157,1.285.639,2.063.833,2.663,2.109.287,3.518-5.77,7.267-8.648,8.6-1.285.59-3.23.964-4.694,1.551l-.3.12a51.813,51.813,0,0,0-4.466,7.8c.284,2.678,1.436,7.416-.445,9.732-.679-1.992.176-5.059-1.316-6.019-1.59.837-.865,3.768-1.479,4.737-1.458,2.3-3.209.7-1.347,4.061-.275.819-.046.473-.831.964-.791-.161-2.462-.714-2.912.121-4.173,7.736,4.839,1.307-.55,10.325-.339,2.625,2.65,2.733-.791,6.05-.2.191.492,1.3.7,1.7l-.2.463c-1.016-.5-1.526-1.76-2.116-2.8l-.457.018a6.818,6.818,0,0,0,.185,1.245c.318,1.223-.744.994-.41,2.619a17.6,17.6,0,0,0,4.265,2.44,10.843,10.843,0,0,0-.571,2.807c4.475,5.748-3.391,7.87-7.533,9.859-.028,5.22,1.677,6.433,2.915,11.227.291,1.13-.111,4.129.2,6.013-3.4,5.612-6.294,3.611-10.163,7.984-.789.893-.165,2.827.036,4.111l-.366.3a9.431,9.431,0,0,0-2.358.1c-4.937,9.142,11.99,9.422.612,16.18-1.64-1.007-3.232-1.309-4.719-2.319-3.115-2.112-2.772-5.921-4.482-8.694-.994-1.612-3.481.7-5.94.8-2.075-1.032-1.872-1.245-3.028.475-3.788,1.659-6.651,1.668-10.655,1.384a9.537,9.537,0,0,1-3.691-3.586c-1.494-3.227-4.7-9.287-1.1-12.076a35.475,35.475,0,0,0,2.943-2.634l-.058-.315c-3,.318-2.715-.038-5.517-1.832a5.1,5.1,0,0,1-1.6,2.017l-.4-.117c-1.258-4.608-1.708-3.682-4.567-6.844-4.98-5.509-4.718-4.951-11.843-5.967-.545,1.17-.653,1.7-1.658,2.415-1.376-.038-2.577-1.137-3.6-2.079-2.679-2.474-1.6-5.086-1.158-8.181a34.009,34.009,0,0,0,.108-4.494c1.714-2.323,2.084-2.415,1.984-5.262,3.895-4.127,6.382-3.005,9.489-5.5s-.353-11.221-.343-15.455l0-.457a26.911,26.911,0,0,0-2.175-2.2c1.484-1.853,4.07-3.395,4.976-4.978,3.022-5.285-4.393-10.708-5.768-15.279-.831-2.765,1.581-3.478.684-6.764-.989-1.007-1.209-.63-2.914-1.1l-.281-.636c-1.3-2.039-2.964-1.828-4.828-4.157-3.091,1.532-10.747,5.67-14.013,4.419-1.215-1.68-1.028-1.523-2.881-1.031-1-.476-1.413-1.687-2.11-2.456a54.266,54.266,0,0,0-5.6-4.411c-1.475-1.173-4.409-4.935-6.09-5.179-2.99,1.226-5.8,9.775-8.06,10.276-2.761-2.091-1.164-9.954-5.783-10.865-5.32-1.044-5.851-10.578-3.546-14.346-5.267-4.87-4.894-7.178-3.884-13.929,1.776-11.869-4.975-6.4-7.1-7.094-2.558-2.456-2.7-.849-5.807-1.887-2.425-2.844-.173-6.066,3.479-6.541l.364-.044c.758-1.461.2-4.114-1.4-4.8-5.064,1.013-2.793-1.5-5.373-2-.3.306-1.418,1.485-1.688,1.4-3.12-.951-12.68-.04-13.69-3.852-1.392-5.244-2.169-2.779-3.559-3.592a3.075,3.075,0,0,0-.358-1.587c-5.295.762-4.37,1.229-9.126-1.511-.416-.238-1.383.328-2.5-.518-1.654-5.72-4-4.58-.416-10.365-.68-1.44-1.6-2.607-1.825-4.132,1.5-2.054,4.857,1.168,4.226-7.681-.141-1.971,3.237-8.382,5.185-10.26-4.287-1.856-4.629-8.864-6.847-12.4-1.023-1.634-3.016-3.029-4.242-4.463-.766-.9-.333-1.084-1.476-2.286a15.387,15.387,0,0,0-2.267-.108c-5.947-3.987-8.85-3.53-15.639-3.054-2.287-1.554-3.193-2.641-5.859-3.867l.919-4.173c-1.06-1.751-2.238-5.154-3.429-5.9-5.514-3.339-4.34-8.249-4.786-13.753-.443-5.461-5.193-4.6-6.643-9.636a11.634,11.634,0,0,1-3.685-1.155c-1.125-4.343-5.249-5.927-9.123-7.984-1.1-.586-4.912.074-6.322-1.918-1.608-2.27-.533-5.932-.092-8.49,4.884-2.1,4.834-4.432,5.942-9.314,2.282-.519,4.127-2.288,5.763-2.075.952.828,1.129,2.147,1.48,3.41,5.5-4.015,3.225-.479,7.19-.519,6.954-.07,13.695-1.124,20.3,1.727.848-2.313.714-2.227,2.7-3.564,3.905-2.625,7.4.729,11.088.636,1.2-.028,1.93-4.061,3.056-4.947,2.9-2.28,6.4-4.271,9.427-6.454,1.119-.791,2.626-1.228,3.958-2.071,4.192,4.656,5.863,3.954,9.64,7.712l3.006-1.454c1.038.914,1.883,1.763,3.26,1.877,1.225-.262,1.6-.911,2.518-1.88q2.337-.218,4.671-.47a63.746,63.746,0,0,1-.285-6.507,18.365,18.365,0,0,1,4.237-3.078c5.227-2.651,3.576-10,9.231-12.144a2.413,2.413,0,0,1,1.8.524c2.617,2.094,3.437-.22,6.06.775,3.033,1.152,4.791,4.509,7.606,5.581,1.936.738,3.213-.269,5.02-1.2,2.958,1.225,5.748,2.388,8.774,3.455a14.724,14.724,0,0,1,4.858-4.326,30.108,30.108,0,0,0-2.52-3.617c.02-2.8.324-5.369.611-8.148-2.135-4.406-1.4-5.235-6.8-6.168-1.984-3.572-2.021-6.149-5.372-7.683a13.907,13.907,0,0,1,.188-3.717c.663-.654.551-.386.876-1.175-4.441-.771-2.253-1.825-5.658-3.534-.828-.416-2.46.476-3.9-.281-.885-1.538-.694-4.512-.673-6.319q2.153-1.456,4.231-3.017c-.828-2.768-1.83-4.247-1.191-7.036,2.066-2.358,6.382,1.031,8.444,2.362a59.393,59.393,0,0,0,5.45-7.254c2.043-3.584,4.442-9.8,7.022-12.809-4.229-4.027-1.774-5.785-4.647-8.906q-.437,0-.874-.009c-7.993-.174-8.155-4.772-6.259-10.3.681-1.985-3.161-3.415-2.915-5.745a6.069,6.069,0,0,0,1.324-1.481c-.394-1.7-.97-2.755-1.359-4.026-.613-3.253-2.875-2.558-5.552-2.31-4.154.385-3.172-2.9-6.9-5.331a13.961,13.961,0,0,0-2.9-4.808c-2.954-3.005-2.479-6.567-2.879-10.385.1-.539-1.38-1.863-1.212-2.282,2.056-5.142-.921-7.446-2.164-11.81-.488-1.71.831-7.62,1.049-9.594.049-.435,3.759-1.953,4.353-2.319,2.9-1.879-2.361-9.331-1.346-12.6,2.2-2.718,5.82.357,7.263-3.193-.833-3.567.27-6.331,1.128-9.943a10.088,10.088,0,0,0,3.325-2.5c3.773.915,16.823,5.946,19.043,2.8-.411-4.381,1.088-2.946,3.674-6.461a20.438,20.438,0,0,0,1.011-3.39c-3.2-2.827-1.3-6.558-.244-10.12-.849-1.7-1.478-3.084-2.209-4.837l3.394-1.141c1.518-6.263,2.666-5.3,6.824-9.911l.049-.865c.165-3.466.913-3.114,4.024-3.83,1.488,1.549,3.535,4.222,5.784,4.01,2.109-1.69.165-9.78,2.327-11.837,2.455-2.336.347-5.022,1.109-6.056,1.959-2.661,5.786-6.189,9.067-6.941a8.728,8.728,0,0,0,.9.33c.984.154,7.636-5.621,9.048-6.537L186,34.65c4.559-6.766,6.04-5.015.076-10.006-.254-.213-.007-.74.089-1.106.942-1.134,2.024-1.422,3.406-2.014.077-1.908-.153-4.57,1.322-5.68,2.742-2.065,1.69-4.989,2.691-7.306.177-.411,1.718.015,2.723-1.437.076-1.048-.054-1.151.46-1.974,4.94,1.155,2.841-4.831,8.008-1.177.034.024,8.272.014,10.141.312,2.07-1.315,4.967-2.919,7.439-2.736,4.909.363,3.76,6.228,3.389,9.313,2.3,2.392,2.88,2.414,6.03,3.321,5.754-4.571,12.134-3.368,18.75-3.962,3.542-.318,4.1-5.238,6.7-6.784,1.513-.9,4.247.514,6,.141,2.079-.378,5.568-4.37,7.53-2.378,1.2.973,1.788,4.662,2.718,5.461,3.079,2.646,6.016,2.188,7.984,6.519a27.358,27.358,0,0,0,3.861,2.507c-1.288,2.975-3.178,5.088-3.987,8.1l.247,1.266c1.27,6.654,15.09,8.506,20.112,9.539a39.43,39.43,0,0,0,4.157-3.406c.544-.492,3.5-4.736,3.951-4.783,4.336-.46,7.273,1.105,11.634-.237l2.285.8c2.616.937,4.667.841,7.289,1.318,6.316,1.147,10.1,1.43,15.763-2.016,1.374.56,3.116,1.413,4.493,2.043,2.081-3.494,2.15-4.336,2.147-8.353q2.117-1.339,4.253-2.653c.926-2.556.951-4.966,1.587-7.641.58-2.455,1.208-4.631,1.689-7.119C362.344,1.781,369.559.234,371.344.009Z" fill="#36454f"/>
</svg>
