<?xml version="1.0" encoding="UTF-8"?><svg id="_レイヤー_2" xmlns="http://www.w3.org/2000/svg" viewBox="0 0 66.47 32.84"><defs><style>.cls-1{fill:#add700;}</style></defs><g id="_レイヤー_1-2"><path class="cls-1" d="m25.43,22.02c0-2.24.01-4.49,0-6.73-.01-1.79-1.03-2.93-2.55-2.9-1.45.02-2.46,1.19-2.46,2.91,0,4.56.01,9.13-.01,13.69,0,1.92-1.3,3.47-3.05,3.79-1.78.33-3.52-.57-4.25-2.2-.28-.63-.35-1.29-.34-1.97,0-4.49,0-8.98,0-13.46,0-1.2-.49-2.09-1.64-2.55-1.08-.44-1.98-.11-2.75.67-.57.58-.62,1.33-.62,2.09,0,4.3,0,8.6,0,12.9,0,.52-.04,1.05-.14,1.56-.38,1.87-1.95,3.06-3.9,3.01-1.78-.05-3.26-1.36-3.56-3.15-.05-.29-.11-.59-.11-.89.04-4.9-.19-9.8.11-14.69C.62,6.45,9.37,2.11,15.71,6.36c.71.48,1.13.36,1.76-.04,6.47-4.09,14.94.08,15.54,7.71.39,5,.15,10.02.1,15.03-.02,2.28-1.75,3.8-3.91,3.76-2.09-.03-3.61-1.54-3.69-3.84-.08-2.32-.02-4.64-.02-6.95-.02,0-.04,0-.06,0Z"/><path class="cls-1" d="m61.97,32.81c-5.83-.06-10.46-4.67-10.52-10.63-.06-6.06-.03-12.12,0-18.18C51.45,1.67,53.07.01,55.25,0c2.21-.01,3.73,1.48,3.79,3.83.02.69.23.91.91.88.9-.05,1.8-.03,2.7,0,2.19.06,3.79,1.63,3.82,3.73.03,2.08-1.54,3.77-3.69,3.9-.97.06-1.95.03-2.92,0-.53-.01-.82.09-.81.72.03,3.1-.02,6.21.03,9.31.03,1.72,1.25,2.75,3.14,2.78,2.01.03,3.39.91,4.01,2.48.91,2.3-.74,5.54-4.25,5.18Z"/><path class="cls-1" d="m35.43,21.48c0-2.35-.05-4.71.01-7.06.16-5.91,5.68-10.51,11.54-9.66,1.84.27,3.31,1.99,3.28,3.84-.03,1.9-1.61,3.6-3.5,3.77-.26.02-.52,0-.79.01-1.96.03-2.9.95-2.9,2.89-.01,4.49.02,8.97-.01,13.46-.02,2.91-2.6,4.79-5.19,3.82-1.48-.55-2.43-1.89-2.44-3.55-.03-2.5,0-5.01,0-7.51,0,0,0,0,.01,0Z"/></g></svg>