<?xml version="1.0" encoding="UTF-8"?>
<svg id="_レイヤー_2" data-name="レイヤー 2" xmlns="http://www.w3.org/2000/svg" viewBox="0 0 350.04 142.45">
  <defs>
    <style>
      .cls-1 {
        stroke: #72af2d;
      }

      .cls-1, .cls-2, .cls-3, .cls-4, .cls-5, .cls-6, .cls-7, .cls-8 {
        fill: none;
      }

      .cls-1, .cls-2, .cls-3, .cls-4, .cls-6, .cls-7, .cls-8 {
        stroke-linecap: round;
        stroke-linejoin: round;
      }

      .cls-1, .cls-3, .cls-4, .cls-6, .cls-7 {
        stroke-width: .92px;
      }

      .cls-2 {
        stroke-width: .93px;
      }

      .cls-2, .cls-3 {
        stroke: #ffdf4f;
      }

      .cls-4 {
        stroke: #fff;
      }

      .cls-5 {
        stroke-miterlimit: 10;
      }

      .cls-5, .cls-7, .cls-8 {
        stroke: #3ebab9;
      }

      .cls-9 {
        fill: #fff;
      }

      .cls-6 {
        stroke: #f3db5d;
      }

      .cls-8 {
        stroke-width: 1.01px;
      }
    </style>
  </defs>
  <g id="_レイヤー_1-2" data-name="レイヤー 1">
    <g>
      <line class="cls-3" x1="120.21" y1="12.06" x2="115.07" y2="7.35"/>
      <line class="cls-6" x1="118.38" y1="16.28" x2="111.77" y2="14.06"/>
      <line class="cls-3" x1="118.4" y1="20.89" x2="111.46" y2="21.52"/>
      <line class="cls-3" x1="120.29" y1="25.1" x2="114.19" y2="28.47"/>
      <line class="cls-3" x1="123.71" y1="28.19" x2="119.48" y2="33.73"/>
      <polyline class="cls-1" points="125.56 31.11 125.56 29.76 133.96 29.76 133.96 31.11"/>
      <polyline class="cls-1" points="126 33.66 126 32.3 133.52 32.3 133.52 33.66"/>
      <path class="cls-1" d="M132.48,33.66v.91c0,.54-.44.98-.98.98h-3.48c-.54,0-.98-.44-.98-.98v-.91"/>
      <circle class="cls-3" cx="128.92" cy="18.14" r="8.78"/>
      <line class="cls-3" x1="132.63" y1="7.84" x2="135.49" y2="1.48"/>
      <line class="cls-3" x1="127.95" y1="7.43" x2="127.95" y2=".46"/>
      <line class="cls-3" x1="123.59" y1="8.93" x2="120.78" y2="2.55"/>
      <path class="cls-1" d="M59.98,25.05c.12,1.4.43,2.59.94,3.57s1.17,1.77,1.97,2.39c.8.61,1.73,1.06,2.78,1.34,1.05.28,2.17.42,3.37.42,1.4,0,2.61-.18,3.63-.53,1.02-.35,1.85-.82,2.5-1.42.64-.6,1.12-1.29,1.42-2.08.31-.79.46-1.62.46-2.5,0-1.23-.28-2.22-.83-2.98-.55-.76-1.28-1.38-2.17-1.86s-1.91-.87-3.06-1.16c-1.15-.29-2.34-.58-3.55-.85-1.21-.28-2.39-.61-3.55-.99s-2.17-.89-3.06-1.53c-.89-.64-1.61-1.47-2.17-2.47-.56-1.01-.83-2.28-.83-3.83,0-1.08.22-2.13.68-3.15.45-1.02,1.12-1.93,2.01-2.72.89-.79,2.01-1.41,3.35-1.88,1.34-.47,2.89-.7,4.64-.7s3.33.25,4.66.74c1.33.5,2.43,1.18,3.31,2.04.87.86,1.53,1.86,1.97,3s.66,2.35.66,3.63"/>
      <path class="cls-1" d="M85.38,34.46V2.94h11.51c2.04,0,3.73.24,5.06.7,1.33.47,2.38,1.11,3.15,1.93s1.31,1.76,1.62,2.82.46,2.18.46,3.35c0,1.75-.36,3.2-1.07,4.33-.72,1.14-1.64,2.04-2.78,2.69-1.14.66-2.43,1.12-3.87,1.38-1.44.26-2.9.39-4.36.39h-6.74"/>
      <path class="cls-1" d="M153.46,34.46V5.48h-9.98M143.48,2.94h22.94"/>
      <path class="cls-1" d="M190.54,34.46h-19.88V2.94"/>
      <path class="cls-1" d="M199.04,2.42v31.52"/>
      <path class="cls-1" d="M231.52,34.46v-5.39c-.56.94-1.19,1.79-1.9,2.56-.72.77-1.54,1.43-2.47,1.97s-2.01.95-3.24,1.25-2.61.44-4.16.44c-1.98,0-3.82-.35-5.52-1.05s-3.15-1.74-4.38-3.13-2.18-3.13-2.87-5.23-1.03-4.55-1.03-7.36c0-2.31.29-4.46.87-6.46.58-2,1.48-3.74,2.69-5.21,1.21-1.47,2.73-2.63,4.55-3.48s3.98-1.27,6.46-1.27c1.66,0,3.22.2,4.66.61,1.44.41,2.74,1.03,3.9,1.86s2.12,1.87,2.91,3.11c.79,1.24,1.36,2.71,1.71,4.4M220.58,18.18h13.48v16.29"/>
      <path class="cls-1" d="M262.83,34.46v-15.45h-18.65v15.45M265.8,2.94v31.52M241.2,34.46V2.94"/>
      <path class="cls-1" d="M279.99,34.46V5.48h-9.98M270.01,2.94h22.94"/>
      <path class="cls-7" d="M76.27,11.41c0-1.2-.21-2.23-.63-3.11-.42-.87-1-1.59-1.73-2.14-.73-.55-1.56-.96-2.5-1.23-.93-.26-1.9-.39-2.89-.39-1.52,0-2.8.21-3.83.63-1.04.42-1.86.97-2.47,1.64s-1.04,1.42-1.27,2.23c-.23.82-.28,1.64-.13,2.45.17,1.02.58,1.84,1.23,2.45.64.61,1.43,1.12,2.36,1.51.93.4,1.96.72,3.09.96,1.12.25,2.27.51,3.44.79,1.17.28,2.3.61,3.39.99,1.1.38,2.06.89,2.91,1.53.85.64,1.52,1.47,2.04,2.47.51,1.01.77,2.27.77,3.79,0,2.92-1.01,5.18-3.02,6.79-2.01,1.61-4.85,2.41-8.49,2.41-1.64,0-3.15-.21-4.55-.63-1.4-.42-2.61-1.07-3.63-1.93-1.02-.86-1.82-1.93-2.39-3.2s-.85-2.76-.85-4.49"/>
      <path class="cls-3" d="M88.35,20.43v13.92M95.18,17.89c1.4,0,2.66-.09,3.76-.26,1.11-.17,2.05-.5,2.83-.99.77-.48,1.37-1.14,1.79-1.97.42-.83.64-1.92.64-3.26,0-1.98-.65-3.49-1.95-4.51-1.3-1.02-3.37-1.53-6.2-1.53h-7.71v12.52h6.83Z"/>
      <path class="cls-3" d="M166.42,5.48h-9.98v28.98"/>
      <path class="cls-7" d="M173.64,2.94v28.99h16.9"/>
      <path class="cls-3" d="M196.06,33.94V2.42"/>
      <path class="cls-3" d="M230.65,12.57c-.26-1.17-.71-2.22-1.33-3.15-.63-.93-1.38-1.71-2.26-2.34-.87-.63-1.85-1.11-2.93-1.44-1.08-.33-2.21-.5-3.37-.5-2.07,0-3.85.37-5.34,1.09-1.49.73-2.72,1.76-3.68,3.09-.96,1.33-1.67,2.92-2.12,4.77-.45,1.85-.68,3.89-.68,6.11,0,1.75.25,3.42.77,4.99.51,1.57,1.25,2.96,2.23,4.16.98,1.2,2.18,2.14,3.59,2.85,1.42.7,3.03,1.05,4.84,1.05.85,0,1.72-.09,2.63-.29.9-.19,1.78-.5,2.63-.94.85-.44,1.64-1.01,2.36-1.71.73-.7,1.36-1.56,1.88-2.58.5-.99.84-2.03,1.03-3.11.19-1.08.3-2.22.33-3.42h-10.64"/>
      <path class="cls-7" d="M244.17,2.94v13.53h18.65V2.94"/>
      <path class="cls-3" d="M292.95,5.48h-9.98v28.98M270.01,2.94h22.94"/>
      <rect class="cls-3" x="51.94" y="50.42" width="31.09" height="5.55"/>
      <path class="cls-1" d="M62.8,71.08v26.42c0,.79.48,1.39,1.44,1.81.07.03.14.06.22.09.91.36,1.92.54,3.03.54s2.12-.18,3.03-.54c.07-.02.15-.05.22-.09.96-.41,1.44-1.02,1.44-1.81v-26.42h-9.38ZM68.69,81.16c0,.5-.44.91-.97.91h-.47c-.54,0-.97-.41-.97-.91v-3.75c0-.5.44-.91.97-.91h.47c.53,0,.97.41.97.91v3.75Z"/>
      <polygon class="cls-8" points="52.96 58.54 61.11 68.49 67.05 68.49 67.92 68.49 73.85 68.49 82.01 58.54 52.96 58.54"/>
      <polygon class="cls-4" points="139.93 78.83 158.6 78.83 149.26 53.8 139.93 78.83"/>
      <polyline class="cls-3" points="4.96 97.63 4.96 55.12 5.09 55.12 20.79 97.63 25.03 97.63 40.65 55.12 40.79 55.12 40.79 97.63"/>
      <polyline class="cls-1" points="45.29 97.63 45.29 49.96 38.47 49.96 23.11 92.01 22.97 92.01 7.35 49.96 .46 49.96 .46 97.63"/>
      <polyline class="cls-3" points="87.48 49.96 104.5 77.17 104.5 97.63"/>
      <polyline class="cls-1" points="121.05 49.96 106.68 72.93 92.64 49.96"/>
      <polyline class="cls-7" points="109 97.63 109 76.84 126.28 49.96"/>
      <path class="cls-3" d="M132.77,97.63l5.56-14.78c.04-.11.15-.19.27-.19h21.32c.12,0,.23.08.27.19l5.36,14.58c.04.11.15.19.27.19M139.93,78.83l9.34-25.03,9.34,25.03h-18.67Z"/>
      <polyline class="cls-1" points="209.66 93.79 178.93 93.79 209.46 53.73 209.46 49.96 175.95 49.96"/>
      <polyline class="cls-3" points="175.95 53.8 203.89 53.8 173.37 93.86 173.37 97.63 209.66 97.63"/>
      <path class="cls-3" d="M254.88,97.63l-18.28-47.68h-5.1l-18.74,47.68"/>
      <path class="cls-1" d="M169.83,96.77c.2,0,.34-.2.27-.39l-18.05-47.1c-.04-.11-.15-.19-.27-.19h-4.7c-.12,0-.23.07-.27.18l-18.67,47.49"/>
      <path class="cls-1" d="M217.4,98.3l5.63-14.97h21.72l5.5,14.97M224.55,79.49l9.34-25.03,9.34,25.03h-18.67Z"/>
      <polyline class="cls-7" points="290.51 49.96 266.07 74.66 266.07 49.96"/>
      <polyline class="cls-3" points="298.92 97.63 276.8 68.96 295.61 49.96"/>
      <polyline class="cls-3" points="266.07 97.63 266.07 79.23 273.56 71.74 293.42 97.63"/>
      <line class="cls-1" x1="261.57" y1="49.96" x2="261.57" y2="97.63"/>
      <path class="cls-1" d="M339.64,61.46c-3.32-1-6.72-.71-9.67.59.94-.65,1.93-1.3,2.98-1.96l-1.36-2.06,2.43,1.4c.41-.25.82-.5,1.24-.75.47-.28.94-.55,1.4-.81l-1.16-1.39,2.05.89c.9-.5,1.78-.96,2.63-1.4l-1.66-1.98,3.01,1.31c2.07-1,3.95-1.8,5.53-2.34-4.42-3.47-10.68-4.08-15.81-1.05-2.96,1.75-5.04,4.41-6.1,7.42-1.06-3.01-3.14-5.68-6.1-7.42-5.13-3.02-11.39-2.41-15.81,1.05,1.58.54,3.47,1.34,5.53,2.34l3.01-1.31-1.66,1.98c.85.44,1.74.9,2.63,1.4l2.05-.89-1.16,1.39c.47.26.93.53,1.4.81.42.25.84.5,1.25.75l2.43-1.4-1.36,2.06c1.05.66,2.04,1.32,2.98,1.96-2.95-1.29-6.35-1.59-9.67-.59-5.7,1.72-9.5,6.74-9.94,12.33,1.47-.79,3.33-1.64,5.47-2.48l1.08-3.1.33,2.56c.9-.33,1.84-.66,2.81-.99l.74-2.12.23,1.8c.51-.16,1.02-.32,1.55-.48.47-.14.93-.28,1.39-.41l.62-2.73.59,2.4c3.67-.99,7-1.66,9.6-1.94,2.6.29,5.93.95,9.6,1.94l.59-2.4.62,2.73c.46.13.93.27,1.39.41.52.16,1.04.32,1.55.48l.23-1.8.74,2.12c.97.32,1.91.65,2.81.99l.33-2.56,1.08,3.1c2.14.84,4,1.68,5.47,2.48-.45-5.6-4.24-10.61-9.94-12.33Z"/>
      <polygon class="cls-5" points="321.47 80.73 328.87 80.73 328.71 75.15 321.63 75.15 321.47 80.73"/>
      <path class="cls-2" d="M325.17,67.99c-1.01.12-2.14.3-3.34.52l-.14,4.82h6.97l-.14-4.82c-1.2-.23-2.33-.41-3.34-.52Z"/>
      <polygon class="cls-2" points="321.25 88.12 329.09 88.12 328.93 82.54 321.42 82.54 321.25 88.12"/>
      <polygon class="cls-5" points="321.2 89.93 320.98 97.23 329.36 97.23 329.14 89.93 321.2 89.93"/>
      <g>
        <path class="cls-9" d="M99.75,132.69h-8.12c2.07,2.91,5.53,5.75,8.65,7.13-.37.31-.84.88-1.1,1.28-3.06-1.52-6.34-4.4-8.54-7.46v8.81h-1.54v-8.63c-2.18,3.06-5.42,5.81-8.41,7.35-.26-.4-.75-.97-1.08-1.28,3.13-1.41,6.54-4.23,8.59-7.2h-8.04v-1.47h8.94v-4.05h-7.35v-1.45h7.35v-3.7l2,.11c-.02.15-.15.26-.46.31v3.28h7.6v1.45h-7.6v4.05h9.12v1.47Z"/>
        <path class="cls-9" d="M126.25,133.33h-8.01c2.07,2.8,5.46,5.53,8.52,6.87-.35.29-.84.88-1.08,1.3-3.06-1.52-6.39-4.38-8.59-7.42v8.34h-1.54v-8.21c-2.2,2.99-5.46,5.7-8.48,7.2-.24-.38-.7-.95-1.08-1.25,3.06-1.32,6.41-4.03,8.48-6.83h-8.01v-1.41h9.09v-5.77h-8.01v-1.43h8.01v-2.73l1.98.13c-.02.15-.13.26-.44.31v2.29h8.21v1.43h-8.21v5.77h9.16v1.41ZM111.47,131.63c-.31-1.17-1.19-2.99-2.07-4.34l1.3-.48c.9,1.32,1.85,3.08,2.18,4.25l-1.41.57ZM123.98,127.34c-.09.13-.24.2-.51.2-.59,1.23-1.61,3.02-2.42,4.18,0-.02-1.25-.55-1.25-.55.79-1.19,1.81-3.15,2.36-4.51l1.83.68Z"/>
        <path class="cls-9" d="M151.5,131.41s-.09.04-.13.04c-.13,0-.24-.07-.33-.13-1.67.55-4.12,1.45-5.94,2.25.04.51.07,1.08.07,1.72,0,.7-.02,1.5-.07,2.36l-1.61.09c.07-.79.11-1.8.11-2.66,0-.33,0-.64-.02-.88-2.49,1.21-4.51,2.69-4.51,4.01s1.52,1.89,4.56,1.89c2.14,0,4.12-.04,5.53-.22l.02,1.48c-1.3.13-3.28.18-5.55.18-4.23,0-6.1-1.01-6.1-3.26,0-1.94,2.55-3.81,5.86-5.46-.13-1.39-.75-2.07-1.63-2.07-1.61,0-3.28.9-5.26,3.1-.62.68-1.48,1.54-2.42,2.4l-1.08-1.08c2.2-1.94,4.27-3.79,5.55-8.12l-1.23.02h-3.68v-1.43c1.34.02,2.91.02,3.81.02l1.5-.02c.24-1.01.44-1.96.59-3.15l2.16.26c-.04.22-.22.35-.55.4-.15.88-.35,1.65-.55,2.44,1.5-.02,4.71-.38,7.57-1.28l.26,1.47c-2.75.86-6.08,1.17-8.26,1.23-.53,1.65-1.08,2.97-1.59,3.72h.02c.97-.86,2.42-1.43,3.54-1.43,1.5,0,2.44,1.08,2.73,2.86,1.85-.84,4.18-1.74,5.94-2.42l.68,1.67Z"/>
        <path class="cls-9" d="M158.73,128.16c.51-.11,1.23-.31,2.27-.64,3.9-1.25,7.38-2.11,9.8-2.11,3.7,0,6.85,1.83,6.85,6.45,0,5.46-5.39,7.58-12.84,8.32-.07-.33-.35-1.1-.57-1.5,6.8-.64,11.69-2.49,11.69-6.74,0-3.46-2.38-4.95-5.28-4.95-3.15,0-8.81,1.83-10.81,2.69,0,.22-.2.44-.4.51l-.7-2.03Z"/>
        <path class="cls-9" d="M196.62,142.27c-2.22-2.6-5.66-5.86-8.63-8.19-1.1-.88-1.5-1.5-1.5-2.29,0-.64.35-1.25,1.17-2,2-1.85,5.77-5.42,7.88-7.57l1.87,1.23s-.2.22-.48.22c-.09,0-.18-.02-.26-.04-2.2,2.11-5.64,5.11-7.44,6.8-.53.51-.95.95-.95,1.3,0,.37.4.81,1.17,1.39,2.91,2.25,6.01,5.09,8.7,7.99l-1.52,1.17Z"/>
        <path class="cls-9" d="M211.38,131.66c1.45-.75,3.72-1.28,5.46-1.28,3.5,0,5.7,2.05,5.7,5.28,0,3.99-3.5,6.19-7.93,6.19-2.86,0-4.82-1.15-4.82-3.08,0-1.63,1.61-2.95,3.61-2.95,2.49,0,4.16,1.98,4.49,3.99,1.76-.66,3.04-2.07,3.04-4.12,0-2.38-1.76-3.9-4.54-3.9-3.3,0-6.54,1.47-7.99,2.88-.66.62-1.52,1.54-2.11,2.22l-1.12-1.12c1.98-2.07,8.28-8.08,11.27-10.88-1.28.18-5.68.35-8.19.44-.07.15-.29.29-.46.33l-.18-1.87c2.97-.02,8.65-.24,10.26-.48l.33-.15,1.17,1.43c-.11.09-.31.18-.53.2-1.56,1.28-5.75,5.2-7.46,6.85v.02ZM214.42,140.46c.66,0,1.43-.09,2-.22-.24-1.7-1.5-3.13-3.13-3.13-1.14,0-2.16.62-2.16,1.63,0,1.34,1.83,1.72,3.28,1.72Z"/>
        <path class="cls-9" d="M240.73,122.85c0,.18-.18.29-.46.33l-.04.64c.24,3.1,1.56,13.39,9.95,17.2-.42.31-.88.84-1.12,1.23-5.94-2.82-8.41-8.81-9.45-13.37h-.02c-.92,4.47-3.19,10.19-9.16,13.34-.26-.35-.73-.81-1.19-1.12,9.18-4.6,9.25-15.43,9.4-18.41l2.09.15Z"/>
        <path class="cls-9" d="M271.32,127.65l1.21.68c-.04.11-.18.2-.31.24-1.01,2.64-2.91,6.01-4.76,8.48,1.3.86,2.42,1.76,3.19,2.58l-1.04,1.34c-1.7-1.85-5.31-4.29-8.41-5.79l.92-1.19c1.3.62,2.71,1.39,4.03,2.2,1.54-1.98,3.08-4.71,4.01-6.98h-7.66c-1.3,2.53-2.93,5.02-4.84,6.89-.31-.26-.95-.66-1.37-.88,3.3-3.04,5.7-7.9,6.94-12l1.98.55c-.04.15-.22.24-.53.24-.4,1.19-.88,2.44-1.47,3.72h7.79l.31-.09Z"/>
      </g>
    </g>
  </g>
</svg>