<svg xmlns="http://www.w3.org/2000/svg" width="140" height="39" viewBox="0 0 140 39">
  <g id="グループ_100" data-name="グループ 100" transform="translate(-1277 -21)">
    <rect id="長方形_156" data-name="長方形 156" width="140" height="39" rx="1" transform="translate(1277 21)" fill="#36454f"/>
    <text id="宮崎放送" transform="translate(1373 46)" fill="#fff" font-size="11" font-family="HiraginoSans-W6, Hiragino Sans" letter-spacing="0.182em"><tspan x="-25" y="0">宮崎放送</tspan></text>
    <g id="_レイヤー_1-2" transform="translate(1291.997 30)">
      <path id="パス_44" data-name="パス 44" d="M17.033,16.3c0-1.5.007-3.007,0-4.507-.007-1.2-.69-1.962-1.708-1.942A1.742,1.742,0,0,0,13.678,11.8c0,3.054.007,6.115-.007,9.169A2.529,2.529,0,0,1,11.628,23.5a2.579,2.579,0,0,1-2.846-1.473,3.069,3.069,0,0,1-.228-1.319V11.7a1.672,1.672,0,0,0-1.1-1.708,1.579,1.579,0,0,0-1.842.449,1.85,1.85,0,0,0-.415,1.4v8.64A5.463,5.463,0,0,1,5.1,21.522a2.5,2.5,0,0,1-2.612,2.016,2.5,2.5,0,0,1-2.384-2.11,3.537,3.537,0,0,1-.074-.6c.027-3.282-.127-6.564.074-9.839A6.742,6.742,0,0,1,10.523,5.809.9.9,0,0,0,11.7,5.782,6.772,6.772,0,0,1,22.11,10.946c.261,3.349.1,6.711.067,10.066a2.545,2.545,0,1,1-5.09-.054c-.054-1.554-.013-3.108-.013-4.655h-.04Z" transform="translate(0 -1.55)" fill="#add700"/>
      <path id="パス_45" data-name="パス 45" d="M58.484,21.975a7.088,7.088,0,0,1-7.046-7.12c-.04-4.059-.02-8.117,0-12.176A2.536,2.536,0,0,1,53.984,0a2.433,2.433,0,0,1,2.538,2.565c.013.462.154.609.609.589.6-.033,1.206-.02,1.808,0a2.516,2.516,0,0,1,2.558,2.5,2.568,2.568,0,0,1-2.471,2.612c-.65.04-1.306.02-1.956,0-.355-.007-.549.06-.543.482.02,2.076-.013,4.159.02,6.235a1.883,1.883,0,0,0,2.1,1.862,2.681,2.681,0,0,1,2.686,1.661,2.6,2.6,0,0,1-2.846,3.469Z" transform="translate(-16.978 0)" fill="#add700"/>
      <path id="パス_46" data-name="パス 46" d="M35.424,15.925c0-1.574-.033-3.155.007-4.728a6.829,6.829,0,0,1,7.729-6.47,2.633,2.633,0,0,1,2.2,2.572,2.645,2.645,0,0,1-2.344,2.525c-.174.013-.348,0-.529.007a1.711,1.711,0,0,0-1.942,1.936c-.007,3.007.013,6.008-.007,9.015a2.578,2.578,0,0,1-3.476,2.558,2.482,2.482,0,0,1-1.634-2.378c-.02-1.674,0-3.355,0-5.03h.007Z" transform="translate(-11.693 -1.538)" fill="#add700"/>
    </g>
  </g>
</svg>
