<svg xmlns="http://www.w3.org/2000/svg" width="86.639" height="80.901" viewBox="0 0 86.639 80.901">
  <g id="グループ_163" data-name="グループ 163" transform="translate(-579.669 -1054.572)">
    <path id="パス_408" data-name="パス 408" d="M604.454,1063.721c.135.392,19.268-6.9,19.35-6.663.052.151-34.386,21.236-34.157,21.9.378,1.1,52.033-19.4,52.489-18.073.451,1.31-58.91,29.8-58.319,31.512.68,1.974,70.782-25.2,71.037-24.46.449,1.3-73.265,33.51-72.716,35.1.006.017,78.356-28.061,78.689-27.094.43,1.249-71.983,33.054-71.219,35.273.619,1.8,73.2-27.176,73.8-25.413.094.274-72.835,32.764-72.065,35,.058.168,69.157-23.926,69.192-23.825.472,1.372-60.306,29-59.8,30.462.415,1.206,62.852-22.409,63.088-21.723.333.965-48.439,27.256-48.436,27.267.077.223,38.051-14.455,38.468-13.246" fill="none" stroke="#303d45" stroke-linecap="round" stroke-linejoin="round" stroke-width="5"/>
  </g>
</svg>
